<svg id="svg" version="1.1" xmlns="http://www.w3.org/2000/svg" xmlns:xlink="http://www.w3.org/1999/xlink" width="50" height="50" viewBox="0, 0, 400,400"><g id="svgg"><path id="path0" d="M5.189 25.701 C 0.131 29.036,0.011 29.630,0.005 51.367 L 0.000 71.094 17.969 71.094 L 35.938 71.094 35.938 47.656 L 35.938 24.219 21.680 24.224 C 9.029 24.228,7.170 24.395,5.189 25.701 M59.375 47.656 L 59.375 71.094 76.953 71.094 L 94.531 71.094 94.531 47.656 L 94.531 24.219 76.953 24.219 L 59.375 24.219 59.375 47.656 M117.969 47.656 L 117.969 71.094 135.547 71.094 L 153.125 71.094 153.125 47.656 L 153.125 24.219 135.547 24.219 L 117.969 24.219 117.969 47.656 M176.563 47.656 L 176.563 71.094 288.281 71.094 L 400.000 71.094 399.995 51.367 C 399.989 29.630,399.869 29.036,394.811 25.701 C 392.651 24.277,389.060 24.229,284.570 24.224 L 176.563 24.219 176.563 47.656 M0.005 231.445 C 0.011 384.313,-0.488 370.556,5.189 374.299 C 8.691 376.608,391.309 376.608,394.811 374.299 C 400.488 370.556,399.989 384.313,399.995 231.445 L 400.000 94.531 200.000 94.531 L 0.000 94.531 0.005 231.445 M229.454 155.437 C 232.556 157.328,234.375 160.721,234.375 164.614 C 234.375 167.984,187.800 308.562,185.542 312.008 C 179.874 320.657,165.625 316.142,165.625 305.698 C 165.625 302.333,212.199 161.753,214.454 158.311 C 217.370 153.862,224.599 152.477,229.454 155.437 M135.704 178.875 C 140.074 181.539,142.081 188.633,139.761 193.215 C 139.286 194.154,129.884 203.975,118.868 215.039 L 98.839 235.156 118.868 255.273 C 140.494 276.994,140.626 277.158,140.622 282.175 C 140.615 290.436,131.705 295.741,124.375 291.848 C 121.834 290.498,73.968 242.520,72.738 240.090 C 71.529 237.700,71.663 232.353,72.996 229.844 C 74.255 227.473,122.175 179.562,124.609 178.240 C 127.154 176.858,132.939 177.189,135.704 178.875 M275.625 178.464 C 278.166 179.814,326.032 227.792,327.262 230.222 C 327.736 231.161,328.125 233.381,328.125 235.156 C 328.125 236.931,327.736 239.152,327.262 240.090 C 326.032 242.520,278.166 290.498,275.625 291.848 C 268.295 295.741,259.385 290.436,259.378 282.175 C 259.374 277.158,259.506 276.994,281.132 255.273 L 301.161 235.156 281.132 215.039 C 259.608 193.421,259.375 193.134,259.375 188.294 C 259.375 179.890,268.227 174.535,275.625 178.464 " stroke="none" fill="#000000" fill-rule="evenodd"></path></g></svg>