<svg id="svg" version="1.1" xmlns="http://www.w3.org/2000/svg" xmlns:xlink="http://www.w3.org/1999/xlink" width="50" height="50" viewBox="0, 0, 400,400"><g id="svgg"><path id="path0" d="M117.600 60.800 C 117.600 61.020,116.880 61.200,116.000 61.200 C 115.120 61.200,114.400 61.380,114.400 61.600 C 114.400 61.820,114.051 62.000,113.624 62.000 C 113.197 62.000,112.736 62.180,112.600 62.400 C 112.464 62.620,111.823 62.800,111.176 62.800 C 110.529 62.800,110.000 62.947,110.000 63.128 C 110.000 63.308,109.100 63.700,108.000 64.000 C 106.900 64.300,106.000 64.692,106.000 64.872 C 106.000 65.053,105.460 65.200,104.800 65.200 C 104.140 65.200,103.600 65.380,103.600 65.600 C 103.600 65.820,103.060 66.000,102.400 66.000 C 101.740 66.000,101.200 66.180,101.200 66.400 C 101.200 66.620,100.851 66.800,100.424 66.800 C 99.997 66.800,99.536 66.980,99.400 67.200 C 99.264 67.420,98.713 67.600,98.176 67.600 C 97.639 67.600,97.200 67.780,97.200 68.000 C 97.200 68.220,96.660 68.400,96.000 68.400 C 95.340 68.400,94.800 68.580,94.800 68.800 C 94.800 69.020,94.350 69.200,93.800 69.200 C 93.250 69.200,92.800 69.380,92.800 69.600 C 92.800 69.820,92.361 70.000,91.824 70.000 C 91.287 70.000,90.736 70.180,90.600 70.400 C 90.464 70.620,90.003 70.800,89.576 70.800 C 89.149 70.800,88.800 70.980,88.800 71.200 C 88.800 71.420,88.260 71.600,87.600 71.600 C 86.940 71.600,86.400 71.780,86.400 72.000 C 86.400 72.220,85.860 72.400,85.200 72.400 C 84.540 72.400,84.000 72.580,84.000 72.800 C 84.000 73.020,83.550 73.200,83.000 73.200 C 82.450 73.200,82.000 73.380,82.000 73.600 C 82.000 73.820,81.550 74.000,81.000 74.000 C 80.450 74.000,80.000 74.180,80.000 74.400 C 80.000 74.620,79.505 74.804,78.900 74.809 C 78.295 74.814,77.035 75.165,76.100 75.589 C 75.165 76.014,74.397 76.235,74.394 76.080 C 74.391 75.926,74.245 76.024,74.071 76.298 C 73.898 76.572,73.270 76.836,72.678 76.885 C 72.085 76.934,71.600 77.115,71.600 77.287 C 71.600 77.459,71.060 77.600,70.400 77.600 C 69.740 77.600,69.200 77.780,69.200 78.000 C 69.200 78.220,68.838 78.400,68.395 78.400 C 67.952 78.400,67.187 78.608,66.695 78.862 C 64.769 79.858,64.383 80.000,63.605 80.000 C 63.162 80.000,62.800 80.137,62.800 80.305 C 62.800 80.473,62.407 80.788,61.926 81.005 C 61.157 81.352,59.293 84.000,59.817 84.000 C 59.928 84.000,59.740 84.425,59.400 84.944 C 59.060 85.463,58.895 86.183,59.034 86.544 C 59.174 86.909,59.089 87.200,58.843 87.200 C 58.599 87.200,58.400 87.740,58.400 88.400 C 58.400 89.060,58.220 89.600,58.000 89.600 C 57.780 89.600,57.600 90.219,57.600 90.976 C 57.600 91.733,57.420 92.464,57.200 92.600 C 56.980 92.736,56.800 93.467,56.800 94.224 C 56.800 94.981,56.620 95.600,56.400 95.600 C 56.180 95.600,56.000 96.230,56.000 97.000 C 56.000 97.770,55.820 98.400,55.600 98.400 C 55.380 98.400,55.200 99.030,55.200 99.800 C 55.200 100.570,55.020 101.200,54.800 101.200 C 54.580 101.200,54.400 101.560,54.400 102.000 C 54.400 102.440,54.220 102.800,54.000 102.800 C 53.780 102.800,53.600 103.160,53.600 103.600 C 53.600 104.040,53.420 104.400,53.200 104.400 C 52.980 104.400,52.800 104.760,52.800 105.200 C 52.800 105.640,52.620 106.000,52.400 106.000 C 52.180 106.000,52.000 106.360,52.000 106.800 C 52.000 107.240,51.820 107.600,51.600 107.600 C 51.380 107.600,51.200 107.960,51.200 108.400 C 51.200 108.840,51.065 109.201,50.900 109.201 C 50.735 109.202,50.150 110.192,49.600 111.400 C 49.050 112.608,48.465 113.598,48.300 113.599 C 48.135 113.599,48.000 113.960,48.000 114.400 C 48.000 114.840,47.820 115.200,47.600 115.200 C 47.380 115.200,47.200 115.560,47.200 116.000 C 47.200 116.440,47.020 116.800,46.800 116.800 C 46.580 116.800,46.400 117.160,46.400 117.600 C 46.400 118.040,46.220 118.400,46.000 118.400 C 45.780 118.400,45.600 118.636,45.600 118.925 C 45.600 119.214,45.240 120.195,44.800 121.106 C 44.360 122.016,44.000 123.040,44.000 123.381 C 44.000 123.721,43.809 124.000,43.576 124.000 C 43.343 124.000,43.255 124.165,43.380 124.368 C 43.505 124.570,43.324 125.019,42.978 125.365 C 42.632 125.711,42.461 126.175,42.598 126.397 C 42.735 126.619,42.657 126.800,42.424 126.800 C 42.191 126.800,42.000 127.160,42.000 127.600 C 42.000 128.040,41.820 128.400,41.600 128.400 C 41.380 128.400,41.200 128.850,41.200 129.400 C 41.200 129.950,41.020 130.400,40.800 130.400 C 40.580 130.400,40.400 130.850,40.400 131.400 C 40.400 131.950,40.220 132.400,40.000 132.400 C 39.780 132.400,39.600 132.760,39.600 133.200 C 39.600 133.640,39.420 134.000,39.200 134.000 C 38.980 134.000,38.800 134.360,38.800 134.800 C 38.800 135.240,38.620 135.600,38.400 135.600 C 38.180 135.600,38.000 135.960,38.000 136.400 C 38.000 136.840,37.820 137.200,37.600 137.200 C 37.380 137.200,37.200 137.549,37.200 137.976 C 37.200 138.403,37.020 138.864,36.800 139.000 C 36.580 139.136,36.400 139.672,36.400 140.190 C 36.400 140.709,36.265 141.193,36.100 141.267 C 35.605 141.487,33.200 146.454,33.200 147.256 C 33.200 147.665,33.020 148.000,32.800 148.000 C 32.580 148.000,32.400 148.360,32.400 148.800 C 32.400 149.240,32.220 149.600,32.000 149.600 C 31.780 149.600,31.600 150.140,31.600 150.800 C 31.600 151.460,31.420 152.000,31.200 152.000 C 30.980 152.000,30.800 152.360,30.800 152.800 C 30.800 153.240,30.653 153.600,30.472 153.600 C 30.292 153.600,29.900 154.500,29.600 155.600 C 29.300 156.700,28.908 157.600,28.728 157.600 C 28.547 157.600,28.400 157.872,28.400 158.205 C 28.400 158.538,28.235 159.123,28.034 159.505 C 27.318 160.863,26.346 163.241,26.202 163.989 C 26.122 164.406,25.849 165.134,25.597 165.605 C 25.345 166.077,25.237 166.718,25.357 167.031 C 25.477 167.344,25.401 167.600,25.187 167.600 C 24.974 167.600,24.800 167.960,24.800 168.400 C 24.800 168.840,24.620 169.200,24.400 169.200 C 24.180 169.200,24.000 169.740,24.000 170.400 C 24.000 171.060,23.820 171.600,23.600 171.600 C 23.380 171.600,23.200 171.949,23.200 172.376 C 23.200 172.803,23.020 173.264,22.800 173.400 C 22.580 173.536,22.400 174.087,22.400 174.624 C 22.400 175.161,22.220 175.600,22.000 175.600 C 21.780 175.600,21.600 176.050,21.600 176.600 C 21.600 177.150,21.420 177.600,21.200 177.600 C 20.980 177.600,20.800 177.962,20.800 178.405 C 20.800 179.183,20.658 179.569,19.662 181.495 C 19.408 181.987,19.200 182.741,19.200 183.171 C 19.200 183.601,19.020 184.064,18.800 184.200 C 18.580 184.336,18.400 184.887,18.400 185.424 C 18.400 185.961,18.220 186.400,18.000 186.400 C 17.780 186.400,17.600 186.940,17.600 187.600 C 17.600 188.260,17.420 188.800,17.200 188.800 C 16.980 188.800,16.800 189.340,16.800 190.000 C 16.800 190.660,16.620 191.200,16.400 191.200 C 16.180 191.200,16.000 191.639,16.000 192.176 C 16.000 192.713,15.820 193.264,15.600 193.400 C 15.380 193.536,15.200 194.087,15.200 194.624 C 15.200 195.161,15.020 195.600,14.800 195.600 C 14.580 195.600,14.400 196.129,14.400 196.776 C 14.400 197.423,14.220 198.064,14.000 198.200 C 13.780 198.336,13.600 199.067,13.600 199.824 C 13.600 200.581,13.420 201.200,13.200 201.200 C 12.980 201.200,12.800 201.740,12.800 202.400 C 12.800 203.060,12.620 203.600,12.400 203.600 C 12.180 203.600,12.000 204.129,12.000 204.776 C 12.000 205.423,11.820 206.064,11.600 206.200 C 11.380 206.336,11.200 206.966,11.200 207.600 C 11.200 208.234,11.020 208.864,10.800 209.000 C 10.580 209.136,10.400 209.676,10.400 210.200 C 10.400 210.724,10.210 211.270,9.979 211.413 C 9.747 211.556,9.628 211.882,9.714 212.137 C 9.801 212.391,9.632 213.175,9.339 213.878 C 9.047 214.580,8.908 215.417,9.031 215.737 C 9.154 216.057,9.062 216.438,8.827 216.583 C 8.592 216.728,8.400 217.557,8.400 218.424 C 8.400 219.291,8.220 220.000,8.000 220.000 C 7.780 220.000,7.600 220.720,7.600 221.600 C 7.600 222.480,7.420 223.200,7.200 223.200 C 6.980 223.200,6.800 223.920,6.800 224.800 C 6.800 225.680,6.620 226.400,6.400 226.400 C 6.180 226.400,6.000 227.019,6.000 227.776 C 6.000 228.533,5.820 229.264,5.600 229.400 C 5.380 229.536,5.200 230.256,5.200 231.000 C 5.200 231.744,5.020 232.464,4.800 232.600 C 4.580 232.736,4.400 233.827,4.400 235.024 C 4.400 236.221,4.220 237.200,4.000 237.200 C 3.780 237.200,3.600 238.100,3.600 239.200 C 3.600 240.300,3.420 241.200,3.200 241.200 C 2.980 241.200,2.800 242.190,2.800 243.400 C 2.800 244.610,2.620 245.600,2.400 245.600 C 2.180 245.600,2.000 246.489,2.000 247.576 C 2.000 248.663,1.820 249.664,1.600 249.800 C 1.380 249.936,1.200 251.171,1.200 252.544 C 1.200 254.007,0.993 255.247,0.700 255.540 C -0.028 256.267,-0.028 296.532,0.700 297.260 C 0.975 297.535,1.200 298.613,1.200 299.656 C 1.200 300.699,1.380 301.664,1.600 301.800 C 1.820 301.936,2.000 302.656,2.000 303.400 C 2.000 304.144,2.180 304.864,2.400 305.000 C 2.620 305.136,2.800 305.676,2.800 306.200 C 2.800 306.724,2.980 307.264,3.200 307.400 C 3.420 307.536,3.600 308.267,3.600 309.024 C 3.600 309.781,3.780 310.400,4.000 310.400 C 4.220 310.400,4.400 310.760,4.400 311.200 C 4.400 311.640,4.580 312.000,4.800 312.000 C 5.020 312.000,5.200 312.439,5.200 312.976 C 5.200 313.513,5.380 314.064,5.600 314.200 C 5.820 314.336,6.000 314.797,6.000 315.224 C 6.000 315.651,6.180 316.000,6.400 316.000 C 6.620 316.000,6.800 316.360,6.800 316.800 C 6.800 317.240,6.980 317.600,7.200 317.600 C 7.420 317.600,7.600 317.960,7.600 318.400 C 7.600 318.840,7.780 319.200,8.000 319.200 C 8.220 319.200,8.400 319.446,8.400 319.746 C 8.400 320.046,8.754 320.742,9.187 321.292 C 9.620 321.843,9.889 322.378,9.784 322.482 C 9.680 322.586,9.956 322.998,10.398 323.398 C 10.839 323.797,11.200 324.278,11.200 324.466 C 11.200 324.654,11.740 325.372,12.400 326.063 C 13.060 326.754,13.600 327.475,13.600 327.666 C 13.600 328.157,19.501 334.000,19.997 334.000 C 20.223 334.000,20.972 334.540,21.663 335.200 C 22.354 335.860,23.122 336.400,23.371 336.400 C 23.620 336.400,24.083 336.760,24.400 337.200 C 24.717 337.640,25.209 338.000,25.494 338.000 C 25.778 338.000,26.368 338.180,26.805 338.400 C 27.242 338.620,27.958 338.980,28.395 339.200 C 29.435 339.724,34.800 339.724,34.800 339.200 C 34.800 338.980,35.342 338.800,36.005 338.800 C 37.266 338.800,38.414 338.279,39.755 337.100 C 40.193 336.715,40.709 336.400,40.901 336.400 C 41.094 336.400,42.129 335.500,43.200 334.400 C 44.271 333.300,45.324 332.400,45.539 332.400 C 45.754 332.400,47.027 331.320,48.368 330.000 C 49.708 328.680,50.984 327.600,51.203 327.600 C 51.421 327.600,51.600 327.420,51.600 327.200 C 51.600 326.980,51.804 326.800,52.053 326.800 C 52.302 326.800,52.797 326.480,53.153 326.090 C 53.509 325.699,54.874 324.484,56.187 323.390 C 57.501 322.295,59.350 320.635,60.298 319.700 C 61.246 318.765,62.182 318.000,62.379 318.000 C 62.576 318.000,63.942 316.830,65.415 315.400 C 66.888 313.970,68.264 312.800,68.472 312.800 C 68.681 312.800,69.729 311.900,70.800 310.800 C 71.871 309.700,72.895 308.798,73.074 308.795 C 73.253 308.792,74.646 307.622,76.170 306.195 C 77.693 304.768,79.087 303.600,79.267 303.600 C 79.447 303.600,80.692 302.520,82.032 301.200 C 83.373 299.880,84.638 298.800,84.844 298.800 C 85.049 298.800,86.187 297.855,87.371 296.700 C 89.187 294.930,90.898 293.389,93.715 290.987 C 93.982 290.760,94.830 290.135,95.600 289.600 C 96.370 289.064,97.630 287.984,98.400 287.200 C 99.170 286.416,100.430 285.337,101.200 284.803 C 101.970 284.268,103.077 283.329,103.660 282.715 C 104.244 282.102,104.874 281.600,105.060 281.600 C 105.395 281.599,106.742 280.548,108.907 278.597 C 109.516 278.049,110.281 277.600,110.607 277.600 C 110.933 277.600,111.200 277.420,111.200 277.200 C 111.200 276.980,111.560 276.800,112.000 276.800 C 112.440 276.800,112.800 276.620,112.800 276.400 C 112.800 276.180,113.160 276.000,113.600 276.000 C 114.040 276.000,114.400 275.820,114.400 275.600 C 114.400 275.380,114.715 275.199,115.100 275.198 C 115.485 275.196,116.250 274.965,116.800 274.685 C 117.350 274.404,118.610 273.936,119.600 273.645 C 120.590 273.355,121.813 272.955,122.319 272.758 C 122.824 272.561,123.679 272.400,124.219 272.400 C 124.758 272.400,125.200 272.234,125.200 272.032 C 125.200 271.074,268.005 270.245,268.958 271.198 C 269.179 271.419,270.584 271.600,272.080 271.600 C 273.627 271.600,274.800 271.773,274.800 272.000 C 274.800 272.220,275.242 272.400,275.781 272.400 C 276.321 272.400,277.176 272.561,277.681 272.758 C 278.187 272.955,279.410 273.355,280.400 273.645 C 281.390 273.936,282.650 274.404,283.200 274.685 C 283.750 274.965,284.515 275.196,284.900 275.198 C 285.285 275.199,285.600 275.380,285.600 275.600 C 285.600 275.820,285.960 276.000,286.400 276.000 C 286.840 276.000,287.200 276.180,287.200 276.400 C 287.200 276.620,287.560 276.800,288.000 276.800 C 288.440 276.800,288.800 276.980,288.800 277.200 C 288.800 277.420,289.120 277.600,289.512 277.600 C 289.903 277.600,290.483 277.960,290.800 278.400 C 291.117 278.840,291.607 279.200,291.888 279.200 C 292.170 279.200,292.400 279.380,292.400 279.600 C 292.400 279.820,292.681 280.000,293.024 280.000 C 293.367 280.000,293.553 280.153,293.437 280.340 C 293.322 280.527,293.716 280.932,294.314 281.240 C 294.911 281.548,295.850 282.257,296.400 282.815 C 296.950 283.374,298.028 284.272,298.795 284.810 C 299.562 285.349,301.065 286.647,302.135 287.695 C 303.205 288.743,304.251 289.600,304.459 289.600 C 304.666 289.600,305.269 290.005,305.797 290.500 C 306.326 290.995,307.595 292.120,308.617 293.000 C 309.639 293.880,311.444 295.545,312.629 296.700 C 313.813 297.855,314.951 298.800,315.156 298.800 C 315.362 298.800,316.627 299.880,317.968 301.200 C 319.308 302.520,320.555 303.600,320.739 303.600 C 320.923 303.600,321.889 304.365,322.888 305.300 C 325.352 307.609,326.762 308.800,327.029 308.800 C 327.152 308.800,328.129 309.700,329.200 310.800 C 330.271 311.900,331.319 312.800,331.528 312.800 C 331.736 312.800,333.112 313.970,334.585 315.400 C 336.058 316.830,337.424 318.000,337.621 318.000 C 337.818 318.000,338.754 318.765,339.702 319.700 C 340.650 320.635,342.499 322.295,343.813 323.390 C 345.126 324.484,346.491 325.699,346.847 326.090 C 347.203 326.480,347.698 326.800,347.947 326.800 C 348.196 326.800,348.400 326.980,348.400 327.200 C 348.400 327.420,348.584 327.600,348.809 327.600 C 349.033 327.600,350.207 328.590,351.417 329.800 C 352.627 331.010,353.790 332.000,354.000 332.000 C 354.210 332.000,355.373 332.990,356.583 334.200 C 357.793 335.410,359.042 336.400,359.358 336.400 C 359.674 336.400,359.993 336.542,360.067 336.714 C 360.396 337.492,362.839 338.800,363.962 338.800 C 364.643 338.800,365.200 338.980,365.200 339.200 C 365.200 339.759,370.605 339.707,371.705 339.138 C 373.551 338.183,374.003 338.000,374.506 338.000 C 374.791 338.000,375.283 337.640,375.600 337.200 C 375.917 336.760,376.380 336.400,376.629 336.400 C 376.878 336.400,377.646 335.860,378.337 335.200 C 379.028 334.540,379.782 334.000,380.013 334.000 C 380.525 334.000,386.800 327.714,386.800 327.201 C 386.800 327.000,387.242 326.395,387.782 325.855 C 389.105 324.531,391.600 320.588,391.600 319.819 C 391.600 319.479,391.780 319.200,392.000 319.200 C 392.220 319.200,392.400 318.840,392.400 318.400 C 392.400 317.960,392.580 317.600,392.800 317.600 C 393.020 317.600,393.200 317.240,393.200 316.800 C 393.200 316.360,393.380 316.000,393.600 316.000 C 393.820 316.000,394.000 315.640,394.000 315.200 C 394.000 314.760,394.180 314.400,394.400 314.400 C 394.620 314.400,394.800 313.860,394.800 313.200 C 394.800 312.540,394.980 312.000,395.200 312.000 C 395.420 312.000,395.600 311.640,395.600 311.200 C 395.600 310.760,395.780 310.400,396.000 310.400 C 396.220 310.400,396.400 309.781,396.400 309.024 C 396.400 308.267,396.580 307.536,396.800 307.400 C 397.020 307.264,397.200 306.724,397.200 306.200 C 397.200 305.676,397.380 305.136,397.600 305.000 C 397.820 304.864,398.000 304.144,398.000 303.400 C 398.000 302.656,398.180 301.936,398.400 301.800 C 398.620 301.664,398.800 300.699,398.800 299.656 C 398.800 298.613,399.025 297.535,399.300 297.260 C 399.687 296.873,399.800 292.097,399.800 276.113 C 399.800 259.951,399.691 255.430,399.300 255.300 C 398.964 255.188,398.800 254.224,398.800 252.367 C 398.800 250.789,398.628 249.600,398.400 249.600 C 398.180 249.600,398.000 248.711,398.000 247.624 C 398.000 246.537,397.820 245.536,397.600 245.400 C 397.380 245.264,397.200 244.263,397.200 243.176 C 397.200 242.089,397.020 241.200,396.800 241.200 C 396.580 241.200,396.400 240.311,396.400 239.224 C 396.400 238.137,396.220 237.136,396.000 237.000 C 395.780 236.864,395.600 235.773,395.600 234.576 C 395.600 233.379,395.420 232.400,395.200 232.400 C 394.980 232.400,394.800 231.781,394.800 231.024 C 394.800 230.267,394.620 229.536,394.400 229.400 C 394.180 229.264,394.000 228.533,394.000 227.776 C 394.000 227.019,393.820 226.400,393.600 226.400 C 393.380 226.400,393.200 225.680,393.200 224.800 C 393.200 223.920,393.020 223.200,392.800 223.200 C 392.580 223.200,392.400 222.480,392.400 221.600 C 392.400 220.720,392.246 220.000,392.057 220.000 C 391.868 220.000,391.597 218.885,391.455 217.523 C 391.201 215.096,390.650 212.888,389.951 211.505 C 389.758 211.123,389.600 210.459,389.600 210.029 C 389.600 209.599,389.420 209.136,389.200 209.000 C 388.980 208.864,388.800 208.234,388.800 207.600 C 388.800 206.966,388.620 206.336,388.400 206.200 C 388.180 206.064,388.000 205.423,388.000 204.776 C 388.000 204.129,387.820 203.600,387.600 203.600 C 387.380 203.600,387.200 203.071,387.200 202.424 C 387.200 201.777,387.020 201.136,386.800 201.000 C 386.580 200.864,386.400 200.234,386.400 199.600 C 386.400 198.966,386.220 198.336,386.000 198.200 C 385.780 198.064,385.600 197.423,385.600 196.776 C 385.600 196.129,385.420 195.600,385.200 195.600 C 384.980 195.600,384.800 195.161,384.800 194.624 C 384.800 194.087,384.620 193.536,384.400 193.400 C 384.180 193.264,384.000 192.713,384.000 192.176 C 384.000 191.639,383.820 191.200,383.600 191.200 C 383.380 191.200,383.200 190.660,383.200 190.000 C 383.200 189.340,383.020 188.800,382.800 188.800 C 382.580 188.800,382.400 188.260,382.400 187.600 C 382.400 186.940,382.220 186.400,382.000 186.400 C 381.780 186.400,381.600 185.860,381.600 185.200 C 381.600 184.540,381.420 184.000,381.200 184.000 C 380.980 184.000,380.800 183.561,380.800 183.024 C 380.800 182.487,380.620 181.936,380.400 181.800 C 380.180 181.664,380.000 181.113,380.000 180.576 C 380.000 180.039,379.820 179.600,379.600 179.600 C 379.380 179.600,379.200 179.150,379.200 178.600 C 379.200 178.050,379.020 177.600,378.800 177.600 C 378.580 177.600,378.400 177.150,378.400 176.600 C 378.400 176.050,378.220 175.600,378.000 175.600 C 377.780 175.600,377.600 175.060,377.600 174.400 C 377.600 173.740,377.420 173.200,377.200 173.200 C 376.980 173.200,376.800 172.840,376.800 172.400 C 376.800 171.960,376.620 171.600,376.400 171.600 C 376.180 171.600,376.000 171.060,376.000 170.400 C 376.000 169.740,375.831 169.200,375.625 169.200 C 375.418 169.200,375.127 168.388,374.978 167.395 C 374.829 166.402,374.548 165.492,374.354 165.371 C 374.159 165.251,374.000 164.891,374.000 164.572 C 374.000 164.040,372.852 161.179,371.967 159.505 C 371.765 159.123,371.600 158.538,371.600 158.205 C 371.600 157.872,371.453 157.600,371.272 157.600 C 371.092 157.600,370.700 156.700,370.400 155.600 C 370.100 154.500,369.708 153.600,369.528 153.600 C 369.347 153.600,369.200 153.240,369.200 152.800 C 369.200 152.360,369.020 152.000,368.800 152.000 C 368.580 152.000,368.400 151.460,368.400 150.800 C 368.400 150.140,368.220 149.600,368.000 149.600 C 367.780 149.600,367.600 149.240,367.600 148.800 C 367.600 148.360,367.420 148.000,367.200 148.000 C 366.980 148.000,366.800 147.665,366.800 147.256 C 366.800 146.454,364.395 141.487,363.900 141.267 C 363.735 141.193,363.600 140.709,363.600 140.190 C 363.600 139.672,363.420 139.136,363.200 139.000 C 362.980 138.864,362.800 138.403,362.800 137.976 C 362.800 137.549,362.620 137.200,362.400 137.200 C 362.180 137.200,362.000 136.840,362.000 136.400 C 362.000 135.960,361.820 135.600,361.600 135.600 C 361.380 135.600,361.200 135.240,361.200 134.800 C 361.200 134.360,361.020 134.000,360.800 134.000 C 360.580 134.000,360.400 133.640,360.400 133.200 C 360.400 132.760,360.220 132.400,360.000 132.400 C 359.780 132.400,359.600 131.950,359.600 131.400 C 359.600 130.850,359.420 130.400,359.200 130.400 C 358.980 130.400,358.800 130.046,358.800 129.614 C 358.800 128.737,357.567 125.874,357.100 125.667 C 356.935 125.593,356.800 125.188,356.800 124.767 C 356.800 124.345,356.620 124.000,356.400 124.000 C 356.180 124.000,356.000 123.721,356.000 123.381 C 356.000 123.040,355.640 122.016,355.200 121.106 C 354.760 120.195,354.400 119.214,354.400 118.925 C 354.400 118.636,354.220 118.400,354.000 118.400 C 353.780 118.400,353.600 118.040,353.600 117.600 C 353.600 117.160,353.420 116.800,353.200 116.800 C 352.980 116.800,352.800 116.440,352.800 116.000 C 352.800 115.560,352.620 115.200,352.400 115.200 C 352.180 115.200,352.000 114.840,352.000 114.400 C 352.000 113.960,351.820 113.600,351.600 113.600 C 351.380 113.600,351.200 113.229,351.200 112.776 C 351.200 112.323,351.020 112.064,350.800 112.200 C 350.580 112.336,350.400 112.202,350.400 111.903 C 350.400 111.149,349.465 109.207,349.100 109.203 C 348.935 109.201,348.800 108.840,348.800 108.400 C 348.800 107.960,348.620 107.600,348.400 107.600 C 348.180 107.600,348.000 107.240,348.000 106.800 C 348.000 106.360,347.820 106.000,347.600 106.000 C 347.380 106.000,347.200 105.640,347.200 105.200 C 347.200 104.760,347.020 104.400,346.800 104.400 C 346.580 104.400,346.400 104.040,346.400 103.600 C 346.400 103.160,346.220 102.800,346.000 102.800 C 345.780 102.800,345.600 102.350,345.600 101.800 C 345.600 101.250,345.420 100.800,345.200 100.800 C 344.980 100.800,344.800 100.271,344.800 99.624 C 344.800 98.977,344.620 98.336,344.400 98.200 C 344.180 98.064,344.000 97.423,344.000 96.776 C 344.000 96.129,343.820 95.600,343.600 95.600 C 343.380 95.600,343.200 94.981,343.200 94.224 C 343.200 93.467,343.020 92.736,342.800 92.600 C 342.580 92.464,342.400 91.733,342.400 90.976 C 342.400 90.219,342.243 89.600,342.052 89.600 C 341.860 89.600,341.583 88.745,341.436 87.700 C 341.086 85.213,339.239 81.505,338.100 81.005 C 337.605 80.788,337.200 80.473,337.200 80.305 C 337.200 80.137,336.838 80.000,336.395 80.000 C 335.952 80.000,335.187 79.792,334.695 79.538 C 332.769 78.542,332.383 78.400,331.605 78.400 C 331.162 78.400,330.800 78.220,330.800 78.000 C 330.800 77.780,330.260 77.600,329.600 77.600 C 328.940 77.600,328.400 77.409,328.400 77.176 C 328.400 76.943,328.252 76.844,328.071 76.956 C 327.891 77.068,327.261 76.909,326.671 76.603 C 326.082 76.298,325.600 76.118,325.600 76.204 C 325.600 76.290,324.835 76.014,323.900 75.589 C 322.965 75.165,321.705 74.814,321.100 74.809 C 320.495 74.804,320.000 74.620,320.000 74.400 C 320.000 74.180,319.550 74.000,319.000 74.000 C 318.450 74.000,318.000 73.820,318.000 73.600 C 318.000 73.380,317.550 73.200,317.000 73.200 C 316.450 73.200,316.000 73.020,316.000 72.800 C 316.000 72.580,315.460 72.400,314.800 72.400 C 314.140 72.400,313.600 72.220,313.600 72.000 C 313.600 71.780,313.060 71.600,312.400 71.600 C 311.740 71.600,311.200 71.420,311.200 71.200 C 311.200 70.980,310.851 70.800,310.424 70.800 C 309.997 70.800,309.536 70.620,309.400 70.400 C 309.264 70.180,308.713 70.000,308.176 70.000 C 307.639 70.000,307.200 69.820,307.200 69.600 C 307.200 69.380,306.750 69.200,306.200 69.200 C 305.650 69.200,305.200 69.020,305.200 68.800 C 305.200 68.580,304.660 68.400,304.000 68.400 C 303.340 68.400,302.800 68.220,302.800 68.000 C 302.800 67.780,302.361 67.600,301.824 67.600 C 301.287 67.600,300.736 67.420,300.600 67.200 C 300.464 66.980,300.003 66.800,299.576 66.800 C 299.149 66.800,298.800 66.620,298.800 66.400 C 298.800 66.180,298.260 66.000,297.600 66.000 C 296.940 66.000,296.400 65.820,296.400 65.600 C 296.400 65.380,295.860 65.200,295.200 65.200 C 294.540 65.200,294.000 65.053,294.000 64.872 C 294.000 64.692,293.100 64.300,292.000 64.000 C 290.900 63.700,290.000 63.308,290.000 63.128 C 290.000 62.947,289.561 62.800,289.024 62.800 C 288.487 62.800,287.936 62.620,287.800 62.400 C 287.664 62.180,287.113 62.000,286.576 62.000 C 286.039 62.000,285.600 61.820,285.600 61.600 C 285.600 61.380,284.880 61.200,284.000 61.200 C 283.120 61.200,282.400 61.020,282.400 60.800 C 282.400 60.273,276.126 60.273,275.800 60.800 C 275.664 61.020,275.023 61.200,274.376 61.200 C 273.729 61.200,273.200 61.380,273.200 61.600 C 273.200 61.820,272.840 62.000,272.400 62.000 C 271.960 62.000,271.600 62.180,271.600 62.400 C 271.600 62.620,271.240 62.800,270.800 62.800 C 270.360 62.800,270.000 62.980,270.000 63.200 C 270.000 63.420,269.640 63.600,269.200 63.600 C 268.760 63.600,268.400 63.758,268.400 63.951 C 268.400 64.145,267.860 64.527,267.200 64.800 C 266.540 65.073,266.000 65.455,266.000 65.649 C 266.000 65.842,265.680 66.000,265.288 66.000 C 264.897 66.000,264.317 66.360,264.000 66.800 C 263.683 67.240,263.103 67.600,262.712 67.600 C 262.320 67.600,262.000 67.780,262.000 68.000 C 262.000 68.220,261.640 68.400,261.200 68.400 C 260.760 68.400,260.400 68.580,260.400 68.800 C 260.400 69.020,260.130 69.200,259.800 69.200 C 259.470 69.200,259.200 69.380,259.200 69.600 C 259.200 69.820,258.840 70.000,258.400 70.000 C 257.960 70.000,257.600 70.180,257.600 70.400 C 257.600 70.620,257.240 70.800,256.800 70.800 C 256.360 70.800,256.000 70.980,256.000 71.200 C 256.000 71.420,255.640 71.600,255.200 71.600 C 254.760 71.600,254.400 71.780,254.400 72.000 C 254.400 72.220,253.860 72.400,253.200 72.400 C 252.540 72.400,252.000 72.580,252.000 72.800 C 252.000 73.060,246.000 73.200,234.800 73.200 C 225.340 73.200,217.600 73.301,217.600 73.425 C 217.600 73.549,217.894 74.547,218.253 75.645 C 219.700 80.070,218.404 87.661,215.461 92.000 C 213.971 94.198,210.096 98.000,209.346 98.000 C 209.046 98.000,208.800 98.167,208.800 98.371 C 208.800 98.575,207.315 99.327,205.500 100.041 C 199.771 102.298,191.791 101.721,187.538 98.743 C 186.954 98.335,186.368 98.000,186.235 98.000 C 185.973 98.000,183.958 96.290,182.701 95.000 C 181.417 93.684,178.800 89.688,178.800 89.046 C 178.800 88.716,178.620 88.336,178.400 88.200 C 178.180 88.064,178.000 87.524,178.000 87.000 C 178.000 86.476,177.820 85.936,177.600 85.800 C 177.368 85.657,177.200 83.463,177.200 80.576 C 177.200 77.525,177.355 75.600,177.600 75.600 C 177.820 75.600,178.000 75.240,178.000 74.800 C 178.000 74.360,178.191 74.000,178.424 74.000 C 178.657 74.000,178.736 73.820,178.600 73.600 C 178.443 73.346,173.270 73.200,164.400 73.200 C 155.530 73.200,150.357 73.054,150.200 72.800 C 150.064 72.580,149.524 72.400,149.000 72.400 C 148.476 72.400,147.936 72.220,147.800 72.000 C 147.664 71.780,147.113 71.600,146.576 71.600 C 146.039 71.600,145.600 71.420,145.600 71.200 C 145.600 70.980,145.335 70.800,145.012 70.800 C 144.689 70.800,143.783 70.440,143.000 70.000 C 142.217 69.560,141.311 69.200,140.988 69.200 C 140.665 69.200,140.400 69.020,140.400 68.800 C 140.400 68.580,140.055 68.400,139.633 68.400 C 139.212 68.400,138.807 68.265,138.733 68.100 C 138.566 67.724,136.436 66.425,135.500 66.129 C 135.115 66.007,134.800 65.748,134.800 65.553 C 134.800 65.359,134.440 65.200,134.000 65.200 C 133.560 65.200,133.200 65.020,133.200 64.800 C 133.200 64.580,132.840 64.400,132.400 64.400 C 131.960 64.400,131.600 64.220,131.600 64.000 C 131.600 63.780,131.240 63.600,130.800 63.600 C 130.360 63.600,130.000 63.420,130.000 63.200 C 130.000 62.980,129.640 62.800,129.200 62.800 C 128.760 62.800,128.400 62.620,128.400 62.400 C 128.400 62.180,128.040 62.000,127.600 62.000 C 127.160 62.000,126.800 61.820,126.800 61.600 C 126.800 61.380,126.271 61.200,125.624 61.200 C 124.977 61.200,124.336 61.020,124.200 60.800 C 124.064 60.580,122.523 60.400,120.776 60.400 C 118.925 60.400,117.600 60.567,117.600 60.800 M306.887 98.897 C 309.410 100.052,312.362 102.763,313.229 104.721 C 313.541 105.424,313.931 106.000,314.098 106.000 C 314.264 106.000,314.400 106.439,314.400 106.976 C 314.400 107.513,314.580 108.064,314.800 108.200 C 315.020 108.336,315.200 109.956,315.200 111.800 C 315.200 113.644,315.020 115.264,314.800 115.400 C 314.580 115.536,314.400 115.991,314.400 116.411 C 314.400 119.085,308.277 125.200,305.601 125.200 C 305.186 125.200,304.736 125.380,304.600 125.600 C 304.464 125.820,302.833 126.000,300.976 126.000 C 298.992 126.000,297.600 125.835,297.600 125.600 C 297.600 125.380,297.060 125.200,296.400 125.200 C 295.740 125.200,295.200 125.020,295.200 124.800 C 295.200 124.580,294.932 124.400,294.605 124.400 C 293.488 124.400,289.385 120.544,288.500 118.663 C 286.220 113.816,286.154 110.179,288.266 105.704 C 291.508 98.834,299.982 95.736,306.887 98.897 M98.400 112.202 C 121.591 114.522,130.449 144.884,112.445 160.344 C 98.139 172.628,73.302 165.636,68.712 148.032 C 67.034 141.600,66.864 136.524,68.197 132.699 C 68.522 131.764,68.791 130.752,68.794 130.449 C 68.832 126.876,76.121 118.269,81.668 115.246 C 85.371 113.229,92.778 111.357,95.200 111.826 C 95.530 111.890,96.970 112.059,98.400 112.202 M332.980 126.052 C 333.189 126.243,333.607 126.400,333.908 126.400 C 335.998 126.400,341.600 132.189,341.600 134.348 C 341.600 134.791,341.780 135.264,342.000 135.400 C 342.221 135.536,342.400 137.330,342.400 139.400 C 342.400 141.470,342.221 143.264,342.000 143.400 C 341.780 143.536,341.600 144.087,341.600 144.624 C 341.600 145.161,341.420 145.600,341.200 145.600 C 340.980 145.600,340.800 145.851,340.800 146.157 C 340.800 148.338,334.938 152.436,330.700 153.217 C 317.774 155.599,309.155 139.367,318.234 129.740 C 319.846 128.031,322.375 126.400,323.412 126.400 C 323.735 126.400,324.000 126.230,324.000 126.022 C 324.000 125.253,332.138 125.279,332.980 126.052 M277.905 125.953 C 278.287 126.148,279.137 126.553,279.794 126.853 C 284.499 129.007,287.921 134.951,287.528 140.289 C 286.652 152.181,271.888 157.589,263.507 149.087 C 260.668 146.208,258.632 140.346,259.593 137.819 C 259.817 137.230,260.000 136.398,260.000 135.970 C 260.000 133.258,263.748 128.632,267.427 126.804 C 269.908 125.572,276.157 125.064,277.905 125.953 M305.485 153.558 C 315.877 157.357,318.354 169.557,310.302 177.294 C 308.866 178.674,308.149 179.093,305.081 180.344 C 303.643 180.930,298.372 180.934,296.919 180.350 C 293.645 179.034,292.978 178.591,290.674 176.200 C 280.903 166.060,292.246 148.719,305.485 153.558 M162.737 165.263 C 164.994 166.862,164.990 166.834,165.131 179.900 L 165.262 192.000 177.131 192.003 C 193.535 192.006,192.366 190.945,192.386 205.846 C 192.406 220.397,193.607 219.323,177.000 219.600 L 165.000 219.800 164.800 232.144 L 164.600 244.489 163.215 245.644 L 161.830 246.800 151.301 246.800 C 136.660 246.800,137.872 248.127,137.600 231.800 L 137.400 219.800 125.381 219.600 C 108.797 219.324,109.907 220.370,110.081 205.190 L 110.200 194.814 111.507 193.507 L 112.814 192.200 125.107 192.000 L 137.400 191.800 137.600 179.526 L 137.800 167.251 138.955 166.046 C 140.482 164.453,140.290 164.476,151.800 164.542 C 160.408 164.592,161.930 164.692,162.737 165.263 M256.600 180.982 C 261.234 181.800,262.550 182.186,264.899 183.411 C 282.206 192.435,285.652 214.114,271.938 227.700 C 269.995 229.625,268.232 231.200,268.020 231.200 C 267.809 231.200,266.772 231.699,265.718 232.308 C 255.679 238.110,239.346 235.324,232.670 226.671 C 232.131 225.972,231.264 224.911,230.745 224.313 C 218.031 209.679,228.608 184.300,248.800 180.988 C 252.805 180.331,252.917 180.331,256.600 180.982 " stroke="none" fill="#3c444c" fill-rule="evenodd"></path><path id="path1" d="M216.828 73.400 C 216.828 73.620,217.086 74.250,217.400 74.800 C 217.714 75.350,217.972 75.620,217.972 75.400 C 217.972 75.180,217.714 74.550,217.400 74.000 C 217.086 73.450,216.828 73.180,216.828 73.400 M177.842 75.237 C 177.489 75.944,177.222 77.350,177.250 78.361 L 177.300 80.200 177.597 78.172 C 177.761 77.056,178.113 75.736,178.380 75.237 C 178.647 74.739,178.779 74.246,178.674 74.141 C 178.569 74.036,178.195 74.529,177.842 75.237 M218.180 80.653 C 218.174 83.264,218.291 84.860,218.438 84.200 C 218.785 82.643,218.796 78.069,218.455 76.853 C 218.309 76.333,218.185 78.043,218.180 80.653 M177.251 82.573 C 177.201 84.506,178.478 88.997,179.305 89.800 C 179.587 90.073,179.618 89.946,179.405 89.400 C 178.303 86.582,177.896 85.124,177.617 83.000 L 177.301 80.600 177.251 82.573 M217.400 86.400 C 217.250 86.873,217.217 87.350,217.327 87.460 C 217.437 87.570,217.650 87.273,217.800 86.800 C 217.950 86.327,217.983 85.850,217.873 85.740 C 217.763 85.630,217.550 85.927,217.400 86.400 M216.572 88.900 C 215.270 93.058,209.993 97.855,204.510 99.863 C 203.020 100.409,202.402 100.754,203.138 100.630 C 207.094 99.964,212.786 95.859,215.384 91.799 C 216.670 89.788,217.456 88.000,217.054 88.000 C 216.944 88.000,216.727 88.405,216.572 88.900 M179.622 90.600 C 179.627 91.129,180.742 92.591,180.969 92.365 C 181.066 92.268,180.802 91.741,180.382 91.194 C 179.961 90.647,179.620 90.380,179.622 90.600 M181.543 93.465 C 182.824 95.941,192.002 101.732,193.024 100.709 C 193.138 100.595,192.363 100.218,191.302 99.871 C 188.254 98.874,185.706 97.272,183.312 94.846 C 182.093 93.611,181.297 92.989,181.543 93.465 M196.042 101.214 C 197.495 101.384,199.295 101.378,200.042 101.202 C 201.008 100.974,200.247 100.885,197.400 100.894 C 193.481 100.905,193.454 100.911,196.042 101.214 M90.800 112.393 C 84.945 113.274,78.935 116.424,75.138 120.600 C 72.501 123.502,71.889 124.361,70.558 127.030 C 62.941 142.311,70.667 160.204,87.140 165.432 C 96.194 168.306,108.964 164.927,114.458 158.205 C 114.820 157.762,115.512 156.950,115.995 156.400 C 131.760 138.462,114.769 108.784,90.800 112.393 M269.200 125.990 C 268.870 126.179,267.888 126.644,267.018 127.025 C 254.448 132.515,258.885 152.440,272.831 153.129 C 288.938 153.924,293.207 131.613,278.000 126.118 C 276.432 125.551,270.127 125.460,269.200 125.990 M277.572 126.485 C 291.362 131.168,289.125 151.317,274.665 152.667 C 259.427 154.090,254.371 132.245,268.680 126.806 C 270.941 125.946,275.501 125.782,277.572 126.485 M139.851 165.631 C 137.853 167.203,137.812 167.467,137.600 180.200 L 137.400 192.200 125.125 192.306 L 112.850 192.411 111.625 193.637 L 110.400 194.862 110.400 205.546 L 110.400 216.230 111.556 217.615 L 112.711 219.000 125.056 219.200 L 137.400 219.400 137.600 231.400 C 137.875 247.875,136.928 246.796,151.120 246.799 C 165.618 246.801,164.748 247.777,164.894 231.347 L 165.000 219.400 177.200 219.200 C 193.395 218.935,192.127 219.935,192.333 207.258 C 192.508 196.500,192.359 195.221,190.746 193.607 L 189.538 192.400 178.069 192.395 C 171.761 192.392,166.195 192.281,165.700 192.148 L 164.800 191.907 164.800 180.133 C 164.800 163.610,165.850 164.800,151.268 164.800 C 141.385 164.800,140.859 164.838,139.851 165.631 M249.400 181.065 C 224.706 183.689,217.020 219.098,238.526 231.159 C 239.365 231.630,240.467 232.288,240.976 232.621 C 243.254 234.113,248.373 235.200,253.124 235.200 C 260.575 235.200,269.332 231.338,273.060 226.408 C 273.312 226.074,273.991 225.260,274.568 224.600 C 278.370 220.249,280.828 210.967,279.811 204.800 C 279.000 199.877,278.636 198.665,277.045 195.580 C 271.914 185.635,260.886 179.844,249.400 181.065 " stroke="none" fill="#536b7b" fill-rule="evenodd"></path><path id="path2" d="M295.333 99.617 C 283.636 105.291,285.514 122.107,298.169 125.014 C 309.304 127.571,318.205 115.911,312.990 105.600 C 309.803 99.299,301.670 96.543,295.333 99.617 M325.400 126.400 C 325.264 126.620,324.791 126.800,324.348 126.800 C 322.651 126.800,318.391 130.310,317.003 132.852 C 310.696 144.405,322.707 156.855,334.600 151.092 C 336.413 150.213,339.600 147.297,339.600 146.517 C 339.600 146.233,339.736 146.000,339.902 146.000 C 340.464 146.000,341.325 143.415,341.875 140.079 C 342.675 135.222,336.673 126.800,332.411 126.800 C 331.991 126.800,331.536 126.620,331.400 126.400 C 331.264 126.180,329.914 126.000,328.400 126.000 C 326.886 126.000,325.536 126.180,325.400 126.400 " stroke="none" fill="#de8a30" fill-rule="evenodd"></path><path id="path3" d="M178.675 74.848 C 172.222 89.743,190.321 105.735,206.096 99.076 C 215.048 95.297,220.873 82.588,217.164 74.926 L 216.329 73.200 197.859 73.200 L 179.389 73.200 178.675 74.848 " stroke="none" fill="#abb3bb" fill-rule="evenodd"></path><path id="path4" d="M218.120 80.400 C 218.120 81.610,218.195 82.105,218.287 81.500 C 218.378 80.895,218.378 79.905,218.287 79.300 C 218.195 78.695,218.120 79.190,218.120 80.400 M268.680 126.806 C 256.779 131.330,257.542 148.654,269.800 152.217 C 278.422 154.724,286.808 148.345,286.796 139.289 C 286.784 129.868,277.483 123.460,268.680 126.806 " stroke="none" fill="#7383b9" fill-rule="evenodd"></path><path id="path5" d="M298.000 153.752 C 284.684 157.130,283.958 174.906,296.942 179.652 C 301.520 181.325,306.934 179.977,310.626 176.244 C 319.893 166.872,310.717 150.525,298.000 153.752 " stroke="none" fill="#63ba73" fill-rule="evenodd"></path><path id="path6" d="M299.600 98.016 C 298.484 98.238,298.760 98.305,300.967 98.347 C 302.488 98.376,303.658 98.336,303.567 98.257 C 303.151 97.902,300.870 97.763,299.600 98.016 M294.300 99.669 C 293.035 100.356,292.000 101.083,292.000 101.286 C 292.000 101.489,292.523 101.282,293.162 100.827 C 293.802 100.372,295.107 99.652,296.062 99.228 C 297.018 98.804,297.530 98.449,297.200 98.439 C 296.870 98.429,295.565 98.983,294.300 99.669 M306.615 99.592 C 310.658 101.554,313.091 104.544,314.270 109.000 L 314.799 111.000 314.591 109.278 C 314.037 104.684,308.270 98.339,304.713 98.410 C 304.431 98.416,305.287 98.948,306.615 99.592 M290.307 102.896 C 288.958 104.663,287.596 107.248,287.618 107.994 C 287.628 108.327,288.145 107.520,288.767 106.200 C 289.388 104.880,290.298 103.383,290.789 102.874 C 291.279 102.364,291.597 101.864,291.496 101.763 C 291.395 101.661,290.859 102.171,290.307 102.896 M287.337 111.800 C 287.339 113.560,287.409 114.230,287.493 113.289 C 287.578 112.349,287.577 110.909,287.491 110.089 C 287.405 109.270,287.336 110.040,287.337 111.800 M314.254 114.543 C 313.712 117.874,311.644 121.011,308.668 123.015 C 307.536 123.777,306.788 124.399,307.005 124.398 C 309.701 124.384,315.204 116.576,314.709 113.469 C 314.628 112.962,314.439 113.408,314.254 114.543 M287.606 115.522 C 287.577 117.972,292.969 124.400,295.053 124.400 C 295.223 124.400,294.426 123.745,293.283 122.945 C 291.309 121.563,288.407 117.875,288.394 116.732 C 288.385 115.999,287.614 114.815,287.606 115.522 M295.719 124.636 C 297.194 126.186,304.862 126.176,306.281 124.622 C 306.456 124.430,306.325 124.370,305.990 124.489 C 302.760 125.636,299.991 125.649,296.200 124.536 C 295.760 124.406,295.544 124.452,295.719 124.636 M323.307 126.597 C 314.266 130.706,311.869 141.469,318.414 148.569 C 329.213 160.284,347.571 147.769,340.920 133.224 C 339.566 130.265,336.573 127.779,332.281 126.051 C 330.292 125.249,325.651 125.532,323.307 126.597 M331.400 126.400 C 331.536 126.620,331.991 126.800,332.411 126.800 C 336.673 126.800,342.675 135.222,341.875 140.079 C 341.325 143.415,340.464 146.000,339.902 146.000 C 339.736 146.000,339.600 146.233,339.600 146.517 C 339.600 147.297,336.413 150.213,334.600 151.092 C 322.707 156.855,310.696 144.405,317.003 132.852 C 318.391 130.310,322.651 126.800,324.348 126.800 C 324.791 126.800,325.264 126.620,325.400 126.400 C 325.536 126.180,326.886 126.000,328.400 126.000 C 329.914 126.000,331.264 126.180,331.400 126.400 " stroke="none" fill="#7c693e" fill-rule="evenodd"></path><path id="path7" d="M74.300 120.979 C 73.695 121.737,73.200 122.482,73.200 122.634 C 73.200 122.786,73.740 122.231,74.400 121.400 C 75.511 120.002,75.757 119.600,75.500 119.600 C 75.445 119.600,74.905 120.220,74.300 120.979 M117.374 124.200 C 118.767 126.252,119.052 126.495,118.277 124.971 C 117.934 124.295,117.349 123.490,116.978 123.182 C 116.607 122.874,116.785 123.332,117.374 124.200 M121.482 134.421 C 121.608 135.399,121.775 136.275,121.855 136.367 C 122.181 136.742,121.960 133.755,121.621 133.221 C 121.384 132.846,121.335 133.270,121.482 134.421 M67.388 136.993 C 67.233 138.640,67.263 141.025,67.454 142.293 C 67.750 144.264,67.802 143.828,67.813 139.300 C 67.829 133.186,67.773 132.883,67.388 136.993 M122.093 139.200 C 122.093 139.970,122.175 140.285,122.276 139.900 C 122.376 139.515,122.376 138.885,122.276 138.500 C 122.175 138.115,122.093 138.430,122.093 139.200 M121.664 143.467 C 121.629 144.164,121.496 145.064,121.370 145.467 C 121.153 146.159,121.165 146.160,121.594 145.491 C 121.845 145.102,121.977 144.202,121.889 143.491 L 121.728 142.200 121.664 143.467 M71.000 153.200 C 71.341 153.860,71.711 154.400,71.821 154.400 C 71.931 154.400,71.741 153.860,71.400 153.200 C 71.059 152.540,70.689 152.000,70.579 152.000 C 70.469 152.000,70.659 152.540,71.000 153.200 M296.340 153.585 C 286.931 157.168,283.919 169.190,290.674 176.200 C 292.978 178.591,293.645 179.034,296.919 180.350 C 298.372 180.934,303.643 180.930,305.081 180.344 C 308.149 179.093,308.866 178.674,310.302 177.294 C 321.399 166.630,310.533 148.179,296.340 153.585 M303.754 153.645 C 317.505 157.360,318.180 175.102,304.748 179.780 C 296.703 182.581,287.600 175.692,287.600 166.800 C 287.600 158.388,295.998 151.549,303.754 153.645 M75.400 158.800 C 76.483 159.900,77.460 160.800,77.570 160.800 C 77.680 160.800,76.883 159.900,75.800 158.800 C 74.717 157.700,73.740 156.800,73.630 156.800 C 73.520 156.800,74.317 157.700,75.400 158.800 M146.300 164.699 C 148.995 164.768,153.405 164.768,156.100 164.699 C 158.795 164.630,156.590 164.573,151.200 164.573 C 145.810 164.573,143.605 164.630,146.300 164.699 M138.841 166.214 C 138.159 166.992,137.601 167.847,137.601 168.114 C 137.602 168.381,137.947 168.036,138.367 167.347 C 138.788 166.657,139.547 165.802,140.055 165.447 C 140.563 165.091,140.777 164.800,140.530 164.800 C 140.284 164.800,139.524 165.436,138.841 166.214 M93.300 166.691 C 94.125 166.778,95.475 166.778,96.300 166.691 C 97.125 166.605,96.450 166.534,94.800 166.534 C 93.150 166.534,92.475 166.605,93.300 166.691 M164.976 180.800 C 164.976 187.070,165.032 189.635,165.099 186.500 C 165.167 183.365,165.167 178.235,165.099 175.100 C 165.032 171.965,164.976 174.530,164.976 180.800 M252.305 180.683 C 252.802 180.779,253.522 180.775,253.905 180.675 C 254.287 180.575,253.880 180.496,253.000 180.501 C 252.120 180.505,251.807 180.587,252.305 180.683 M232.363 189.900 C 230.650 191.811,229.869 192.800,230.075 192.800 C 230.185 192.800,231.034 191.900,231.961 190.800 C 233.745 188.685,234.035 188.036,232.363 189.900 M273.200 189.812 C 273.200 189.962,273.650 190.619,274.200 191.273 C 274.750 191.927,275.200 192.339,275.200 192.188 C 275.200 192.038,274.750 191.381,274.200 190.727 C 273.650 190.073,273.200 189.661,273.200 189.812 M125.200 192.000 L 113.000 192.218 125.076 192.309 C 132.796 192.367,137.242 192.256,137.400 192.000 C 137.536 191.780,137.592 191.641,137.524 191.691 C 137.456 191.741,131.910 191.880,125.200 192.000 M171.700 192.299 C 174.945 192.366,180.255 192.366,183.500 192.299 C 186.745 192.232,184.090 192.177,177.600 192.177 C 171.110 192.177,168.455 192.232,171.700 192.299 M110.174 205.800 C 110.175 211.520,110.231 213.804,110.299 210.876 C 110.368 207.948,110.367 203.268,110.299 200.476 C 110.230 197.684,110.174 200.080,110.174 205.800 M279.693 203.600 C 279.693 204.370,279.775 204.685,279.876 204.300 C 279.976 203.915,279.976 203.285,279.876 202.900 C 279.775 202.515,279.693 202.830,279.693 203.600 M225.720 204.800 C 225.720 206.010,225.795 206.505,225.887 205.900 C 225.978 205.295,225.978 204.305,225.887 203.700 C 225.795 203.095,225.720 203.590,225.720 204.800 M279.800 211.200 C 279.645 212.328,279.602 213.336,279.706 213.439 C 279.809 213.542,280.016 212.700,280.167 211.567 C 280.317 210.434,280.359 209.426,280.261 209.328 C 280.163 209.229,279.955 210.072,279.800 211.200 M225.714 211.400 C 225.717 212.500,225.795 212.903,225.887 212.295 C 225.979 211.686,225.977 210.786,225.882 210.295 C 225.787 209.803,225.711 210.300,225.714 211.400 M110.764 217.133 C 110.980 217.536,111.471 218.121,111.855 218.433 C 112.287 218.784,112.190 218.504,111.601 217.700 C 110.551 216.265,110.157 215.998,110.764 217.133 M113.065 219.200 C 113.175 219.310,118.732 219.490,125.413 219.600 C 132.095 219.710,137.435 219.675,137.281 219.522 C 137.126 219.369,131.570 219.189,124.933 219.122 C 118.296 219.055,112.955 219.090,113.065 219.200 M165.061 219.500 C 164.959 219.665,168.323 219.754,172.538 219.698 C 187.134 219.502,188.546 219.370,176.924 219.285 C 170.502 219.238,165.164 219.335,165.061 219.500 M229.560 222.600 C 230.234 223.905,230.788 224.628,230.785 224.200 C 230.783 223.980,230.414 223.350,229.964 222.800 C 229.421 222.136,229.285 222.069,229.560 222.600 M270.975 228.500 L 269.800 229.800 271.100 228.625 C 271.815 227.979,272.400 227.394,272.400 227.325 C 272.400 227.016,272.070 227.288,270.975 228.500 M251.907 235.490 C 252.626 235.579,253.706 235.577,254.307 235.486 C 254.908 235.395,254.320 235.322,253.000 235.324 C 251.680 235.326,251.188 235.401,251.907 235.490 M163.599 244.900 C 163.010 245.704,162.913 245.984,163.345 245.633 C 164.001 245.100,164.993 243.600,164.689 243.600 C 164.613 243.600,164.122 244.185,163.599 244.900 " stroke="none" fill="#48705c" fill-rule="evenodd"></path><path id="path8" d="M297.600 98.020 C 296.926 98.249,297.251 98.284,298.600 98.128 C 299.700 98.001,300.675 97.831,300.767 97.749 C 301.082 97.468,298.599 97.680,297.600 98.020 M302.600 98.000 C 304.292 98.431,305.744 98.431,304.400 98.000 C 303.850 97.824,302.950 97.683,302.400 97.687 C 301.502 97.694,301.522 97.726,302.600 98.000 M307.000 99.267 C 307.880 99.724,309.410 100.721,310.400 101.482 L 312.200 102.866 310.600 101.396 C 309.094 100.012,306.415 98.379,305.716 98.418 C 305.542 98.427,306.120 98.810,307.000 99.267 M289.269 103.639 C 288.528 104.824,288.857 104.913,289.719 103.761 C 290.114 103.232,290.292 102.800,290.115 102.800 C 289.938 102.800,289.557 103.178,289.269 103.639 M314.693 109.700 C 314.981 111.952,315.200 112.121,315.200 110.090 C 315.200 109.187,315.037 108.347,314.838 108.224 C 314.632 108.096,314.569 108.730,314.693 109.700 M286.644 110.967 C 286.511 111.499,286.570 112.354,286.775 112.867 C 287.088 113.648,287.153 113.490,287.175 111.900 C 287.203 109.809,287.017 109.482,286.644 110.967 M314.780 113.890 C 314.671 114.819,314.733 115.427,314.920 115.240 C 315.106 115.054,315.196 114.294,315.119 113.551 C 314.983 112.233,314.975 112.242,314.780 113.890 M312.832 119.139 C 312.179 120.360,312.314 120.700,313.041 119.663 C 313.393 119.160,313.588 118.654,313.473 118.540 C 313.359 118.425,313.070 118.695,312.832 119.139 M308.400 123.620 L 307.400 124.422 308.500 123.947 C 309.105 123.685,309.600 123.320,309.600 123.136 C 309.600 122.679,309.545 122.702,308.400 123.620 M303.400 125.600 C 302.629 125.931,302.631 125.945,303.476 125.972 C 303.958 125.987,304.464 125.820,304.600 125.600 C 304.892 125.127,304.501 125.127,303.400 125.600 M320.229 127.809 C 319.805 128.129,319.535 128.468,319.629 128.561 C 319.723 128.655,320.225 128.387,320.744 127.966 C 321.838 127.079,321.379 126.939,320.229 127.809 M338.181 129.519 C 339.787 131.226,340.549 131.773,339.549 130.502 C 338.804 129.553,338.339 129.104,337.398 128.419 C 336.959 128.099,337.312 128.594,338.181 129.519 M317.691 130.300 C 317.045 131.125,316.306 132.250,316.050 132.800 C 315.658 133.641,315.665 133.682,316.092 133.057 C 316.371 132.649,317.193 131.524,317.918 130.557 C 319.524 128.418,319.335 128.204,317.691 130.300 M314.531 139.400 C 314.533 140.940,314.605 141.521,314.692 140.691 C 314.779 139.861,314.777 138.601,314.689 137.891 C 314.600 137.181,314.529 137.860,314.531 139.400 M342.046 141.867 C 342.021 142.124,341.884 142.664,341.741 143.067 C 341.540 143.636,341.594 143.697,341.979 143.342 C 342.252 143.091,342.389 142.551,342.284 142.142 C 342.179 141.734,342.072 141.610,342.046 141.867 M315.045 143.600 C 315.852 146.731,320.918 152.400,322.909 152.400 C 323.155 152.400,322.556 151.890,321.578 151.267 C 319.217 149.763,316.929 147.165,315.748 144.649 C 315.220 143.522,314.903 143.050,315.045 143.600 M338.268 149.046 C 337.425 149.829,336.807 150.540,336.894 150.627 C 336.981 150.714,337.752 150.069,338.607 149.193 C 340.534 147.219,340.329 147.130,338.268 149.046 M334.800 151.600 C 334.030 152.022,333.544 152.374,333.720 152.383 C 334.144 152.405,336.400 151.232,336.400 150.990 C 336.400 150.728,336.377 150.737,334.800 151.600 M324.200 152.800 C 324.640 152.989,325.270 153.144,325.600 153.144 C 325.978 153.144,325.904 153.017,325.400 152.800 C 324.960 152.611,324.330 152.456,324.000 152.456 C 323.622 152.456,323.696 152.583,324.200 152.800 M327.700 153.476 C 328.085 153.576,328.715 153.576,329.100 153.476 C 329.485 153.375,329.170 153.293,328.400 153.293 C 327.630 153.293,327.315 153.375,327.700 153.476 " stroke="none" fill="#545444" fill-rule="evenodd"></path></g></svg>